<?xml version="1.0"?>
<svg width="931" height="533" xmlns="http://www.w3.org/2000/svg" xmlns:svg="http://www.w3.org/2000/svg" data-name="Layer 1" viewBox="0 0 931 533">
 <g class="layer">
  <title>Layer 1</title>
  <path d="m687.12,49.81c67.68,23.94 129.43,53.87 151.16,92.18c21.74,38.61 3.95,85.59 3.95,132.88c0,47.29 18.77,94.87 -8.4,127.79c-26.68,32.92 -99.29,51.47 -166.97,73.32c-67.68,22.15 -130.91,47.29 -197.11,50.88c-66.69,3.89 -136.34,-14.07 -186.24,-42.2c-50.39,-28.13 -80.03,-66.44 -123.01,-103.25c-42.98,-36.51 -98.8,-71.53 -110.16,-110.73c-11.86,-38.91 20.75,-82 67.68,-114.62c46.44,-32.62 107.69,-54.77 169.44,-80.8c61.26,-26.04 123.5,-55.96 191.18,-61.95c67.68,-5.69 141.28,12.57 208.47,36.51z" fill="#FF0066" id="svg_38"/>
  <path d="m158.63,669.2a22.65,22.65 0 0 0 21.87,-3.86c7.66,-6.43 10.07,-17.02 12.02,-26.83l5.78,-29.01l-12.1,8.33c-8.71,6 -17.61,12.18 -23.63,20.86s-8.66,20.53 -3.82,29.92" data-name="Path 438" fill="#e6e6e6" id="b28c6922-ddd3-47e4-a3ac-36d7a7012cbe-67" transform="translate(-134.5 -183.5)"/>
  <path d="m160.5,706.34c-1.53,-11.09 -3.09,-22.34 -2.02,-33.55c0.95,-9.96 3.99,-19.69 10.17,-27.67a46.03,46.03 0 0 1 11.81,-10.7c1.18,-0.75 2.27,1.12 1.1,1.86a43.76,43.76 0 0 0 -17.31,20.89c-3.77,9.58 -4.38,20.03 -3.73,30.21c0.39,6.16 1.23,12.28 2.07,18.39a1.12,1.12 0 0 1 -0.76,1.33a1.09,1.09 0 0 1 -1.33,-0.76z" data-name="Path 439" fill="#f2f2f2" id="f348d1cd-efe1-4e64-9555-bec9588846f0-68" transform="translate(-134.5 -183.5)"/>
  <path d="m171.46,688.54a16.67,16.67 0 0 0 14.53,7.5c7.36,-0.35 13.49,-5.49 19.01,-10.36l16.32,-14.41l-10.8,-0.52c-7.77,-0.37 -15.74,-0.72 -23.14,1.68s-14.23,8.16 -15.58,15.82" data-name="Path 442" fill="#e6e6e6" id="a93533ad-4b65-413c-802a-4ad30488ecb9-69" transform="translate(-134.5 -183.5)"/>
  <path d="m156.19,712.72c7.34,-12.97 15.84,-27.39 31.04,-32a34.64,34.64 0 0 1 13.05,-1.35c1.39,0.12 1.04,2.25 -0.34,2.13a32.18,32.18 0 0 0 -20.83,5.52c-5.88,4 -10.45,9.55 -14.32,15.45c-2.37,3.61 -4.5,7.37 -6.62,11.13c-0.68,1.2 -2.66,0.34 -1.98,-0.88z" data-name="Path 443" fill="#f2f2f2" id="b011e8a2-9a94-4c33-83aa-73d3f3df33bf-70" transform="translate(-134.5 -183.5)"/>
  <circle cx="369.19" cy="160" fill="#e5e5e5" id="svg_1" r="6"/>
  <path d="m647.19,390.27a421.9,421.9 0 0 1 -67.01,-35.15c-50.99,-32.8 -85.76,-70.74 -86.52,-94.41c-0.22,-6.92 2.35,-12.41 7.64,-16.31c8.55,-6.31 23.81,-7.82 44.11,-4.38l-0.5,2.96c-19.48,-3.31 -33.95,-1.98 -41.83,3.84c-4.45,3.28 -6.61,7.92 -6.42,13.79c0.72,22.73 34.94,59.69 85.15,91.99a418.78,418.78 0 0 0 66.51,34.89l-1.13,2.78z" fill="#3f3d56" id="svg_2" transform="translate(-134.5 -183.5)"/>
  <path d="m719.39,408.04c-8.9,0 -19.43,-1.43 -31.41,-4.3l0.69,-2.92c25.16,6.03 44.2,5.53 53.61,-1.41c4.44,-3.28 6.6,-7.92 6.42,-13.8c-0.73,-22.72 -34.95,-59.69 -85.15,-91.98c-25.45,-16.37 -52.47,-30 -78.15,-39.42l1.03,-2.81c25.89,9.49 53.11,23.22 78.74,39.71c51,32.8 85.77,70.74 86.52,94.41c0.23,6.92 -2.34,12.4 -7.63,16.3c-5.62,4.15 -13.96,6.22 -24.67,6.22z" fill="#3f3d56" id="svg_3" transform="translate(-134.5 -183.5)"/>
  <path d="m526.05,408.01c-10.74,0 -19.16,-2.06 -24.75,-6.19c-5.29,-3.9 -7.86,-9.38 -7.64,-16.3c0.76,-23.67 35.53,-61.61 86.52,-94.41c57,-36.66 120.97,-58.39 152.12,-51.66l-0.63,2.93c-30.45,-6.58 -93.47,14.98 -149.86,51.25c-50.21,32.29 -84.43,69.26 -85.15,91.98c-0.19,5.88 1.97,10.52 6.42,13.8c22.52,16.61 94.51,-4.39 160.47,-46.81c45.31,-29.15 77.5,-61.76 84.02,-85.1l2.89,0.8c-6.71,24.03 -39.39,57.29 -85.29,86.82c-32.3,20.78 -67.04,37.11 -97.8,45.98c-15.98,4.6 -29.95,6.91 -41.32,6.91z" fill="#3f3d56" id="svg_4" transform="translate(-134.5 -183.5)"/>
  <circle cx="431.41" cy="62.5" fill="#1a4fff" id="svg_5" r="9"/>
  <circle cx="531.91" cy="213" fill="#1a4fff" id="svg_6" r="9"/>
  <circle cx="559.91" cy="295" fill="#e5e5e5" id="svg_7" r="6"/>
  <circle cx="411.91" cy="6" fill="#e5e5e5" id="svg_8" r="6"/>
  <circle cx="610.91" cy="67" fill="#1a4fff" id="svg_9" r="9"/>
  <path d="m452.5,716.5l-317,0a1,1 0 0 1 0,-2l317,0a1,1 0 0 1 0,2z" fill="#cbcbcb" id="svg_10" transform="translate(-134.5 -183.5)"/>
  <polygon fill="#ffb7b7" id="svg_11" points="188.696 519.608 200.956 519.607 206.788 472.319 188.694 472.32 188.696 519.608"/>
  <path d="m320.07,699.11l24.14,-0.01l0,0a15.39,15.39 0 0 1 15.39,15.39l0,0.5l-39.53,0l0,-15.88z" fill="#2f2e41" id="svg_12" transform="translate(-134.5 -183.5)"/>
  <polygon fill="#ffb7b7" id="svg_13" points="139.696 520.608 151.956 520.607 157.788 473.319 139.694 473.32 139.696 520.608"/>
  <path d="m271.07,700.11l24.14,-0.01l0,0a15.39,15.39 0 0 1 15.39,15.39l0,0.5l-39.53,0l0,-15.88z" fill="#2f2e41" id="svg_14" transform="translate(-134.5 -183.5)"/>
  <path d="m348.93,504.3l-6.24,182.2l-20,0l-18.95,-163.28l-8.05,165.28l-25,0l-6.9,-195.77l76.75,-1.05l8.39,12.62z" fill="#2f2e41" id="svg_15" transform="translate(-134.5 -183.5)"/>
  <polygon fill="#cbcbcb" id="svg_16" points="152.941 173.116 188.193 172 196.048 317.115 140.325 315.999 152.941 173.116"/>
  <path d="m315.3,508.5l36.8,-1.05l-10.51,-52.57l1.05,-30.49l8.41,-49.41l-23.13,-13.67l-5.26,-6.31s-8.41,8.41 -8.41,47.31s1.05,106.19 1.05,106.19z" fill="#2f2e41" id="svg_17" transform="translate(-134.5 -183.5)"/>
  <path d="m283.76,507.45s31.54,-75.95 17.88,-109.99c0,0 -4.66,-37.2 -12.32,-42.46l-11.87,5.26l-25.23,12.61l9.46,26.29l-3.15,22.08l-2.1,76.75l27.33,9.46z" fill="#2f2e41" id="svg_18" transform="translate(-134.5 -183.5)"/>
  <path d="m262.02,509.02a9.86,9.86 0 0 1 -3.86,-14.62l-12,-19.07l9.81,-10.12l16.57,27.17a9.91,9.91 0 0 1 -10.52,16.64z" fill="#ffb7b7" id="svg_19" transform="translate(-134.5 -183.5)"/>
  <path d="m357.88,527.23a9.86,9.86 0 0 1 0.49,-15.11l-6.04,-21.7l12.29,-6.89l8.11,30.77a9.91,9.91 0 0 1 -14.85,12.93z" fill="#ffb7b7" id="svg_20" transform="translate(-134.5 -183.5)"/>
  <path d="m263.79,370.77l-11.57,2.1l-25.23,60.98l23.13,59.93l15.77,-14.72l-14.72,-35.74s1.05,-4.21 0,-4.74s1.54,-3.91 1.05,-4.17c-1.05,-0.56 2.1,-5.81 2.1,-5.81l12.62,-26.29l-3.15,-31.54z" fill="#2f2e41" id="svg_21" transform="translate(-134.5 -183.5)"/>
  <polygon fill="#2f2e41" id="svg_22" points="204.984 191.476 216.55 191.476 229.166 256.661 228.115 267.175 232.32 293.459 238.103 320.269 219.704 320.795 210.241 271.38 201.83 237.737 204.984 191.476"/>
  <circle cx="171.16" cy="138.85" fill="#ffb7b7" id="svg_23" r="24.56"/>
  <path d="m325.17,302.51l4.36,-1.59s-9.12,-9.11 -21.81,-8.32l3.57,-3.57s-8.72,-3.17 -16.65,5.15c-4.17,4.38 -8.99,9.52 -12,15.32l-4.67,0l1.95,3.9l-6.82,3.9l7,-0.7a19.67,19.67 0 0 0 0.66,10.09l1.59,4.36s6.34,-12.68 6.34,-14.27l0,3.97s4.36,-3.57 4.36,-5.95l2.38,2.77l1.19,-4.36l14.67,4.36l-2.38,-3.56l9.12,1.19l-3.57,-4.36s10.31,5.15 10.71,9.51c0.39,4.36 5.55,9.91 5.55,9.91l2.38,-3.96s3.56,-17.84 -7.93,-23.79z" fill="#2f2e41" id="svg_24" transform="translate(-134.5 -183.5)"/>
  <polygon fill="#9f616a" id="svg_25" points="751.068 473.471 733.506 468.369 725.837 515.912 737.736 519.37 751.068 473.471"/>
  <path d="m834.18,703.8l0.5,-1.74a13.23,13.23 0 0 1 16.4,-9.02l24.69,7.17l0,0l-4.19,14.45l0,0l-37.4,-10.86z" fill="#2f2e41" id="svg_26" transform="translate(-134.5 -183.5)"/>
  <polygon fill="#9f616a" id="svg_27" points="860.711 471.858 842.422 471.857 848.317 519.652 860.708 519.653 860.711 471.858"/>
  <path d="m958.92,714.66l0,-1.81a13.23,13.23 0 0 1 13.23,-13.24l25.71,0l0,0l0,15.05l0,0l-38.94,0z" fill="#2f2e41" id="svg_28" transform="translate(-134.5 -183.5)"/>
  <path d="m978.39,539.54a10.22,10.22 0 0 0 4.8,-13.63l-3.46,-32.62l-17.26,-7.38l6.43,35.54a10.22,10.22 0 0 0 9.49,18.09z" fill="#9f616a" id="svg_29" transform="translate(-134.5 -183.5)"/>
  <path d="m975.31,451.68l-20.25,-61.47c-0.43,-0.7 -5.47,-8.64 -16.44,-5.26a9.18,9.18 0 0 0 -5.67,4.62c-3.21,6.16 -0.22,15.67 -0.2,15.72l24.93,55.87l0.02,0.06l7.87,57.37l16.99,-3.45l-7.25,-63.46z" fill="#1a4fff" id="svg_30" transform="translate(-134.5 -183.5)"/>
  <path d="m840.72,679.09l30.48,-93.46l35.33,-80.77l-0.5,-39.17l41.93,-9.78l4.88,16.42c28.24,18.63 18.94,54.48 18.28,56.88l42.55,157.05l-46.4,5.15l-31.14,-148.69l-28.73,60.42l-20.31,90.37l-46.37,-14.42z" fill="#2f2e41" id="svg_31" transform="translate(-134.5 -183.5)"/>
  <path d="m903,432.8c-8.34,-15.98 -2.31,-22.07 6.81,-31.27a125.47,125.47 0 0 0 10.46,-11.57c14.22,-18.28 30.73,-9.3 30.89,-9.21l0.1,0.05l4.08,6.12c13.43,13.52 -6.95,50.69 -8.49,53.45l1.02,26.58l-43.34,4.12l-1.53,-38.27z" fill="#1a4fff" id="svg_32" transform="translate(-134.5 -183.5)"/>
  <circle cx="795.27" cy="164.54" fill="#9f616a" id="svg_33" r="24.82"/>
  <path d="m919.51,535.39a10.22,10.22 0 0 0 19.34,-6.17l4.9,-32.44l-14.83,-11.5l-2.77,36.01a10.16,10.16 0 0 0 -6.64,14.1z" fill="#9f616a" id="svg_34" transform="translate(-134.5 -183.5)"/>
  <path d="m922.65,518.51l7,-58.31l-9.97,-60.34c-0.03,-0.42 -0.52,-10.43 4.39,-15.85a10.04,10.04 0 0 1 7.28,-3.33c12.47,-0.55 15.45,9.84 15.48,9.94l4.06,64.82l-9.16,64.13l-19.08,-1.06z" fill="#1a4fff" id="svg_35" transform="translate(-134.5 -183.5)"/>
  <path d="m904.45,343.74l1.35,-2.17a16.46,16.46 0 0 1 17.44,7.84c0.85,-3.14 5.92,-2.98 7.79,-0.32c1.88,2.66 1.46,6.25 0.85,9.45c-0.61,3.2 -1.29,6.67 0.18,9.58a8.87,8.87 0 0 0 7.76,4.41a16.5,16.5 0 0 0 8.81,-2.81a30.15,30.15 0 0 0 13.74,-29.05a29.01,29.01 0 0 0 -4.78,-12.26a5.67,5.67 0 0 0 3.76,-1.83a6.01,6.01 0 0 0 0.65,-6.24a11.3,11.3 0 0 0 -3.68,-4.37a9.17,9.17 0 0 0 3.9,1.82c1.75,0.26 3.8,-0.65 4.11,-2.34c0.31,-1.61 -0.98,-3.07 -2.17,-4.25q-1.16,-1.15 -2.32,-2.3a14.63,14.63 0 0 0 1.11,-1.43a11.5,11.5 0 0 0 0.58,-12.47c2.21,3.77 0.27,8.26 -3.62,11.32c-0.12,0.1 -0.27,0.19 -0.39,0.28l-1.48,-1.46a12.65,12.65 0 0 0 -4.16,-3.11c-1.63,-0.63 -3.72,-0.44 -4.78,0.89c-1.14,1.42 -0.82,3.68 -2.16,4.94c-1.17,1.09 -3.07,0.91 -4.64,0.45c-1.58,-0.47 -3.2,-1.14 -4.79,-0.8a4.5,4.5 0 0 0 -3.15,5.15a6.13,6.13 0 0 0 1.17,2.6a81,81 0 0 0 -13.21,-0.04c-5.18,0.29 -10.47,0.65 -15.24,2.67c-4.78,2.02 -9.02,6.03 -9.9,11.14c-0.88,5.11 2.11,14.26 7.27,14.71z" fill="#2f2e41" id="svg_36" transform="translate(-134.5 -183.5)"/>
  <path d="m1064.5,716.5l-317,0a1,1 0 0 1 0,-2l317,0a1,1 0 0 1 0,2z" fill="#cbcbcb" id="svg_37" transform="translate(-134.5 -183.5)"/>
 </g>

</svg>