<?xml version="1.0"?>
<svg width="564.46765" height="449.26526" xmlns="http://www.w3.org/2000/svg" xmlns:svg="http://www.w3.org/2000/svg" class="svg__img svg__color app__img">
 <g class="layer">
  <title>Layer 1</title>
  <path d="m287.58,11.51c23.46,12.22 33.28,59.2 24.9,97.1c-8.14,37.9 -34.48,66.41 -40.94,107.13c-6.23,40.72 7.42,93.66 -2.87,139.08c-10.3,45.11 -44.53,83.01 -80.45,86.14c-35.91,3.13 -73.74,-28.5 -110.85,-62.33c-37.11,-33.83 -73.74,-70.16 -64.41,-108.07c9.1,-37.9 64.41,-77.68 89.07,-116.21c24.42,-38.21 18.44,-75.49 28.01,-93.66c9.58,-18.17 34.72,-17.54 65.84,-28.5c31.13,-10.65 68.24,-33.2 91.7,-20.67z" fill="#FF0066" id="svg_38"/>
  <path d="m239.35,431.63c2.06,0.13 3.2,-2.44 1.64,-3.93l-0.16,-0.62c0.03,-0.05 0.05,-0.1 0.07,-0.15c2.09,-4.98 9.17,-4.95 11.24,0.04c1.84,4.43 4.18,8.87 4.75,13.55c0.26,2.06 0.15,4.17 -0.31,6.2c4.31,-9.41 6.57,-19.69 6.57,-30.02c0,-2.6 -0.14,-5.2 -0.43,-7.79c-0.24,-2.11 -0.57,-4.22 -0.99,-6.31c-2.31,-11.27 -7.3,-22.01 -14.51,-30.99c-3.46,-1.89 -6.34,-4.85 -8.09,-8.39c-0.62,-1.28 -1.12,-2.66 -1.35,-4.06c0.4,0.05 1.49,-5.95 1.19,-6.31c0.55,-0.84 1.53,-1.25 2.13,-2.07c2.98,-4.04 7.09,-3.33 9.24,2.16c4.58,2.31 4.62,6.15 1.81,9.84c-1.79,2.35 -2.03,5.52 -3.6,8.03c0.16,0.21 0.33,0.41 0.49,0.62c2.96,3.8 5.52,7.88 7.68,12.17c-0.61,-4.77 0.29,-10.51 1.83,-14.21c1.75,-4.22 5.02,-7.77 7.91,-11.42c3.46,-4.38 10.57,-2.47 11.18,3.08c0.01,0.06 0.01,0.11 0.02,0.17c-0.43,0.24 -0.85,0.49 -1.26,0.77c-2.34,1.54 -1.53,5.17 1.24,5.6l0.06,0.01c-0.15,1.54 -0.42,3.07 -0.8,4.58c3.7,14.31 -4.29,19.53 -15.7,19.76c-0.26,0.13 -0.5,0.26 -0.75,0.38c1.15,3.26 2.08,6.6 2.76,9.98c0.61,2.99 1.04,6.01 1.28,9.05c0.3,3.83 0.27,7.68 -0.05,11.5l0.02,-0.13c0.82,-4.21 3.1,-8.15 6.42,-10.87c4.95,-4.07 11.94,-5.56 17.27,-8.83c2.57,-1.57 5.86,0.46 5.41,3.44l-0.02,0.14c-0.79,0.33 -1.57,0.7 -2.32,1.12c-0.43,0.24 -0.85,0.5 -1.26,0.77c-2.34,1.55 -1.53,5.17 1.25,5.6l0.06,0.01c0.04,0.01 0.08,0.01 0.13,0.02c-1.37,3.24 -3.26,6.24 -5.64,8.83c-2.32,12.5 -12.26,13.68 -22.89,10.04l-0.01,0c-1.16,5.07 -2.86,10.01 -5.04,14.73l-18.02,0c-0.07,-0.2 -0.13,-0.41 -0.18,-0.61c1.66,0.11 3.34,0.01 4.98,-0.29c-1.33,-1.65 -2.67,-3.3 -4.01,-4.94c-0.03,-0.03 -0.06,-0.06 -0.08,-0.1c-0.68,-0.84 -1.37,-1.67 -2.04,-2.51l0,0c-0.05,-2.58 0.26,-5.15 0.88,-7.64l0,0z" fill="#f2f2f2" id="svg_1"/>
  <path d="m0,448.08c0,0.66 0.53,1.19 1.19,1.19l403.29,0c0.66,0 1.19,-0.53 1.19,-1.19c0,-0.66 -0.53,-1.19 -1.19,-1.19l-403.29,0c-0.66,0 -1.19,0.53 -1.19,1.19z" fill="#ccc" id="svg_2"/>
  <path d="m544.74,449l-206.55,0c-10.87,0 -19.72,-8.85 -19.72,-19.72l0,-409.56c0,-10.87 8.85,-19.72 19.72,-19.72l206.55,0c10.88,0 19.73,8.85 19.73,19.72l0,409.56c0,10.87 -8.85,19.72 -19.73,19.72zm-206.55,-447c-9.79,0 -17.72,7.94 -17.72,17.72l0,409.56c0,9.78 7.93,17.72 17.72,17.72l206.55,0c9.79,0 17.73,-7.94 17.73,-17.72l0,-278.58c0,-82.12 -66.58,-148.7 -148.71,-148.7l-75.57,0z" fill="#e6e6e6" id="svg_3"/>
  <g id="svg_4">
   <circle cx="377.13" cy="178.12" fill="#e6e6e6" id="svg_5" r="24"/>
   <circle cx="505.8" cy="178.12" fill="#e6e6e6" id="svg_6" r="24"/>
   <circle cx="441.47" cy="178.12" fill="#e6e6e6" id="svg_7" r="24"/>
  </g>
  <circle cx="377.13" cy="247.12" fill="#e6e6e6" id="svg_8" r="24"/>
  <circle cx="505.8" cy="247.12" fill="#e6e6e6" id="svg_9" r="24"/>
  <circle cx="441.47" cy="247.12" fill="#e6e6e6" id="svg_10" r="24"/>
  <circle cx="377.13" cy="316.12" fill="#e6e6e6" id="svg_11" r="24"/>
  <circle cx="505.31" cy="385" fill="#e6e6e6" id="svg_12" r="24"/>
  <ellipse cx="409.81" cy="385" fill="#e6e6e6" id="svg_13" rx="56.5" ry="24"/>
  <circle cx="505.8" cy="316.12" fill="#e6e6e6" id="svg_14" r="24"/>
  <circle cx="441.47" cy="316.12" fill="#6c63ff" id="svg_15" r="24"/>
  <path d="m446.18,28l-229.53,0c-6.81,0 -12.34,5.53 -12.34,12.34l0,84.32c0,6.81 5.53,12.34 12.34,12.34l229.53,0c6.81,0 12.34,-5.53 12.34,-12.34l0,-84.32c0,-6.81 -5.53,-12.34 -12.34,-12.34z" fill="#fff" id="svg_16" transform="matrix(1, 0, 0, 1, 0, 0)"/>
  <path d="m446.18,28l-229.53,0c-6.81,0 -12.34,5.53 -12.34,12.34l0,84.32c0,6.81 5.53,12.34 12.34,12.34l229.53,0c6.81,0 12.34,-5.53 12.34,-12.34l0,-84.32c0,-6.81 -5.53,-12.34 -12.34,-12.34zm11.05,96.66c0,6.09 -4.95,11.04 -11.05,11.04l-229.53,0c-6.09,0 -11.04,-4.95 -11.04,-11.04l0,-84.32c0,-6.09 4.95,-11.04 11.04,-11.04l229.53,0c6.1,0 11.05,4.95 11.05,11.04l0,84.32z" fill="#3f3d56" id="svg_17"/>
  <rect fill="#6c63ff" height="7" id="svg_18" rx="3.5" ry="3.5" width="211" x="225.92" y="79"/>
  <g id="svg_19">
   <g id="svg_20">
    <polygon fill="#a0616a" id="svg_21" points="67.95213 180.42129 65.90768 192.59602 84.03834 236.69982 93.76596 231.69877 84.29796 190.42664 82.93717 174.67575 67.95213 180.42129"/>
    <path d="m87.97,111.93s-9.5,-4.6 -16.86,10.94c-7.37,15.53 -6.46,49.61 -6.46,49.61c0,0 -2.68,2.56 -0.98,4.34s3.29,4.63 1.56,7.9c-0.92,1.72 -3.04,5.1 0.43,6.06c3.47,0.95 19.7,-3.57 19.7,-3.57c0,0 6.07,-2.72 2.62,-4.55c-3.45,-1.83 1.41,-12.91 1.41,-12.91l4.01,-31.99l-5.43,-25.83z" fill="#6c63ff" id="svg_22"/>
    <ellipse cx="91.85" cy="241.93" fill="#a0616a" id="svg_23" rx="7.22" ry="12.15" transform="translate(-66.97226 37.62166) rotate(-17.07063)"/>
   </g>
   <g id="svg_24">
    <polygon fill="#a0616a" id="svg_25" points="185.27776 442.5699 194.36401 440.13085 189.2821 403.92273 175.87152 407.52214 185.27776 442.5699"/>
    <path d="m216.35,434.01l0,0c0.41,0.4 0.98,1.9 1.13,2.45l0,0c0.45,1.71 -0.56,3.46 -2.26,3.91l-28.14,7.56c-1.16,0.31 -2.36,-0.38 -2.67,-1.54l-0.31,-1.18s-2.34,-3.14 -0.64,-8.25c0,0 4.47,2.44 8.37,-4.31l0.81,-3.27l13.59,5.27l6.5,-0.92c1.43,-0.2 2.59,-0.72 3.62,0.28z" fill="#2f2e41" id="svg_26"/>
   </g>
   <g id="svg_27">
    <polygon fill="#a0616a" id="svg_28" points="96.2113 442.361 105.61922 442.36008 110.09461 406.072 96.20939 406.07296 96.2113 442.361"/>
    <path d="m128.44,442.15l0,0c0.3,0.49 0.45,2.08 0.45,2.66l0,0c0,1.76 -1.43,3.19 -3.19,3.19l-29.14,0c-1.2,0 -2.18,-0.98 -2.18,-2.18l0,-1.21s-1.44,-3.65 1.53,-8.14c0,0 3.69,3.52 9.2,-1.99l1.63,-2.95l11.76,8.61l6.52,0.8c1.43,0.17 2.69,-0.03 3.42,1.21z" fill="#2f2e41" id="svg_29"/>
   </g>
   <path d="m158.82,226.21l24.74,106.63l11.94,86.16l-18.76,2.56l-52.04,-146.73l-11.94,146.73l-21.33,1.7s-17.06,-174.02 -9.38,-195.35l76.77,-1.7z" fill="#2f2e41" id="svg_30"/>
   <g id="svg_31">
    <polygon fill="#a0616a" id="svg_32" points="188.26927 100.11464 196.80486 91.19571 206.607 44.52897 195.75069 43.19573 180.37664 82.6504 172.64656 96.44127 188.26927 100.11464"/>
    <path d="m133.21,145.51s7.99,14.72 22.82,6.02c14.82,-8.71 30.5,-43 30.5,-43c0,0 3.13,-8.71 6.41,-10.44c1.73,-0.91 6.17,-1.89 3.84,-4.64c-2.33,-2.74 -19.09,-8.73 -19.09,-8.73c0,0 -6.55,-1.17 -4.73,2.28c1.83,3.46 -4.16,1.32 -3.55,4.97c0.6,3.66 -4.87,4.92 -4.87,4.92l-31.33,48.62z" fill="#6c63ff" id="svg_33"/>
    <ellipse cx="203.09" cy="35.81" fill="#a0616a" id="svg_34" rx="12.15" ry="7.22" transform="translate(109.01967 219.32569) rotate(-72.86125)"/>
   </g>
   <path d="m134.27,94.47l-23.36,0l-0.94,7.37s-29.46,8.1 -28.72,12.52s5.15,78.06 5.15,78.06l-3.68,36.82s66.28,27.98 76.59,-5.16l-5.16,-38.29s12.52,-65.54 9.58,-68.49c-2.95,-2.94 -27.25,-14.73 -27.25,-14.73l-2.21,-8.1z" fill="#6c63ff" id="svg_35"/>
   <circle cx="120.7" cy="73.6" fill="#a0616a" id="svg_36" r="20.96"/>
   <path d="m136.23,64.98c2.68,-0.23 5.36,-0.46 8.03,-0.68c-0.92,-0.42 -1.87,-0.88 -2.49,-1.68c-0.61,-0.81 -0.74,-2.08 0,-2.77c0.87,-0.81 2.3,-0.38 3.25,0.33c-0.52,-2.72 -2.15,-5.21 -4.42,-6.79c-2.79,-1.93 -9.67,0.37 -13.03,-0.07c-3.87,-0.51 -4.35,-3.81 -8.22,-4.32c-1.46,-0.2 -3.1,-0.34 -4.25,0.58c-1.27,1.02 -1.42,2.96 -2.54,4.14c-1.6,1.69 -4.35,1.19 -6.63,1.67c-3.23,0.67 -5.67,3.51 -6.79,6.61s-1.17,6.48 -1.2,9.78c-0.03,3.7 -0.04,7.98 2.63,10.54c1.63,1.55 6.07,6.89 6.55,9.1c0.34,1.56 14.24,3.47 17.25,3.38l10.26,-3.38c1.01,-4.44 -0.66,-13.23 -3.06,-17.1c0.79,1.04 4.44,4.18 5,3s0.31,-4.89 1,-6c0.88,-1.4 -2.99,-6.2 -1.34,-6.34z" fill="#2f2e41" id="svg_37"/>
  </g>
 </g>

</svg>