<?xml version="1.0" standalone="no"?>

<svg version="1.0" xmlns="http://www.w3.org/2000/svg"
 width="512.000000pt" height="512.000000pt" viewBox="0 0 512.000000 512.000000"
 preserveAspectRatio="xMidYMid meet">

<g transform="translate(0.000000,512.000000) scale(0.100000,-0.100000)"
fill="#1a4fff" stroke="none">
<path d="M1483 4306 c-276 -53 -481 -205 -594 -441 -69 -144 -83 -214 -83
-425 0 -155 4 -202 23 -290 128 -592 575 -1262 1152 -1723 46 -37 89 -67 96
-67 35 0 324 132 322 148 0 4 -38 33 -84 65 -244 170 -503 426 -715 706 -161
214 -332 527 -404 741 -99 295 -102 561 -9 733 60 110 180 197 323 233 95 24
310 15 446 -19 203 -52 463 -167 671 -298 325 -204 673 -530 915 -856 38 -51
71 -93 73 -93 14 0 145 294 145 323 0 8 -29 51 -64 95 -474 587 -1132 1024
-1732 1152 -128 27 -378 36 -481 16z"/>
<path d="M3249 4305 c-53 -7 -141 -25 -195 -39 -106 -28 -304 -97 -304 -106 0
-3 35 -25 77 -50 42 -25 116 -72 163 -106 l87 -61 72 18 c246 63 487 45 632
-47 101 -63 176 -180 205 -316 19 -90 14 -275 -11 -393 -113 -538 -566 -1178
-1130 -1596 -316 -234 -684 -414 -970 -475 -108 -23 -290 -23 -374 -1 -194 52
-325 189 -366 382 -26 126 -14 337 29 478 l14 48 -61 88 c-34 48 -82 122 -107
164 -25 42 -48 77 -51 77 -17 0 -97 -251 -130 -410 -33 -154 -33 -408 0 -535
63 -248 211 -434 429 -540 131 -64 203 -78 407 -79 153 -1 197 3 290 22 599
128 1279 579 1737 1152 167 208 279 384 398 625 99 200 166 388 202 565 32
161 32 416 0 535 -82 299 -289 506 -580 581 -122 32 -320 40 -463 19z"/>
<path d="M1953 3672 c-199 -162 -556 -537 -587 -615 -6 -17 1 -45 28 -111 40
-96 104 -226 111 -226 2 0 30 35 61 78 194 263 472 544 737 742 53 40 97 74
97 77 0 6 -215 108 -277 131 l-52 20 -118 -96z"/>
<path d="M2441 3024 c-253 -68 -410 -331 -346 -579 67 -256 329 -415 580 -350
256 67 415 329 350 578 -67 259 -333 419 -584 351z"/>
<path d="M4126 2318 c-17 -29 -63 -102 -104 -163 l-74 -110 12 -55 c44 -207
51 -350 25 -473 -53 -253 -250 -397 -543 -397 -91 0 -229 20 -315 45 l-47 14
-74 -53 c-41 -29 -115 -77 -165 -107 -50 -30 -91 -56 -91 -59 0 -20 293 -110
440 -136 157 -27 408 -25 514 4 166 46 333 150 426 266 221 272 248 682 78
1164 -22 61 -43 112 -47 112 -3 0 -19 -24 -35 -52z"/>
</g>
</svg>
