<svg class="svg__img svg__color" viewBox="129.9999999999999 129.9999999999999 780.0000000000001 780.0000000000001" xmlns="http://www.w3.org/2000/svg" xmlns:blush="http://design.blush" overflow="visible" xmlns:xlink="http://www.w3.org/1999/xlink" width="780.0000000000001px" height="780.0000000000001px"><g id="Master/Composition/Sticker" stroke="none" stroke-width="1" fill="none" fill-rule="evenodd" blush:i="0"><g id="Stickers" fill="#000" blush:width="1040" blush:height="1040" blush:component="Stickers" blush:i="0.0" blush:value="Atom" transform="scale(1 1)"><g id="Stickers/Atom" stroke="none" stroke-width="1" fill="none" fill-rule="evenodd" blush:i="0.0.0"><g id="Group" transform="translate(141.000000, 136.000000)" fill="#000" blush:i="0.0.0.0"><path d="M479.064759,373.848777 C479.111871,373.848777 479.158984,373.849955 479.206097,373.849955 C478.088349,386.272729 479.73847,394.939698 491.925341,383.27892 C500.93564,374.578974 500.081723,373.772224 492.619075,366.611581 C480.302644,351.268018 478.108372,358.399218 479.064759,373.848777 M300.982384,273.946026 C303.930459,286.271048 321.962835,264.058921 327.617534,260.588129 C325.833142,255.724074 320.80033,255.43435 317.086674,253.598258 C300.510079,242.078808 304.230803,264.207316 300.982384,273.946026 M450.023329,457.320914 C452.920758,433.385757 428.365632,459.319534 420.706289,464.503934 C418.046779,472.417151 436.061488,471.894236 441.354597,475.216633 C450.135221,477.635706 448.167089,460.645666 450.023329,457.320914 M279.972487,351.239753 C285.537671,315.08086 263.039014,345.785651 251.426917,356.474795 C240.674627,366.390166 272.591109,382.228379 279.400068,388.988591 C288.751934,389.505618 278.965453,358.58059 279.972487,351.239753 M309.27657,448.063898 C312.694595,455.873475 317.023072,494.132273 329.441972,488.029238 C336.626655,482.834239 363.691709,479.093745 361.321941,469.59647 C354.396378,466.340027 305.924503,429.264854 309.27657,448.063898 M374.62656,258.759103 C394.251345,273.035635 416.860717,283.241907 437.622095,296.109866 C439.348774,297.856451 442.173179,296.542096 442.702019,294.855576 C439.743343,283.284306 433.84837,229.146074 418.912474,234.391716 C404.092005,242.695943 387.140865,246.858067 374.62656,258.759103 M495.523572,485.999997 C528.535422,489.338882 558.562685,474.45817 544.447728,438.751529 C548.82214,429.673529 517.158889,382.751294 509.467745,393.008209 C492.48716,408.237531 474.302845,421.359881 476.561898,446.539906 C475.054292,472.751629 459.196166,486.545289 495.523572,485.999997 M360.988619,163.595567 C329.151052,163.959488 318.920535,203.287672 311.198767,228.613737 C309.786565,241.353322 332.527853,239.408878 340.605321,245.641464 C364.267661,248.607007 387.184444,221.316476 410.522885,214.833032 C420.912407,206.938658 394.581134,178.827245 387.1974,171.965747 C380.290682,166.386805 373.034152,163.046742 360.988619,163.595567 M383.821777,565.777571 C418.031467,566.407661 430.10409,532.737327 439.614961,506.552692 C440.871692,503.037146 439.41591,501.019681 435.525581,499.565176 C380.053941,475.414493 387.847555,485.439394 334.831662,507.934178 C328.689348,524.722824 365.865959,564.457328 383.821777,565.777571 M183.773117,264.485262 C181.550577,282.59533 217.678931,346.227302 235.535812,345.517127 C270.419214,308.247627 282.775691,308.831785 285.720233,254.412074 C287.65892,244.61801 285.038277,243.489738 277.404846,241.394543 C247.611969,236.370315 191.013158,223.545933 183.773117,264.485262 M252.177187,504.976879 C259.569165,501.016148 313.201056,503.734366 306.713641,487.876132 C297.041409,464.865499 299.471245,434.372701 279.510783,417.354396 C267.491162,412.432631 239.522723,376.367957 230.696163,382.334375 C191.494885,427.229724 165.551113,503.999357 252.177187,504.976879 M572.015709,254.562825 C570.701266,190.565753 491.336433,206.604181 451.774742,222.580188 C447.090565,237.147622 464.62708,266.750051 466.72006,284.149943 C472.794062,326.449559 479.176651,328.342183 510.894081,354.876606 C514.120122,357.468806 515.798511,357.333366 518.77721,354.126387 C543.37827,326.665085 569.187771,291.792281 572.015709,254.562825 M298.731576,362.20331 C291.506847,419.940707 330.844752,423.637625 372.338062,447.546871 C400.173408,468.973447 423.676743,432.589607 447.790188,420.41298 C459.484731,405.70304 451.060985,381.836192 453.355372,363.841543 C450.463832,349.959552 454.181022,331.185241 440.551325,322.573625 C415.018612,305.609496 390.302125,287.858638 362.645807,274.526651 C342.322578,266.174137 322.695438,297.947136 305.023473,306.347937 C289.933284,320.0462 299.194458,344.252237 298.731576,362.20331 M240.966726,221.832325 C255.254822,222.524835 269.327378,224.326773 283.255062,227.486642 C289.670631,228.941148 290.788379,228.409988 292.899027,221.785216 C304.527613,187.057274 332.445405,122.362982 377.96096,142.723705 C402.954234,152.800426 421.139726,174.272934 434.831847,196.91258 C438.14269,202.4927 439.283995,202.732958 445.770232,200.662496 C489.291743,188.425804 564.664954,171.394544 583.432288,226.909551 C598.834599,279.761693 561.217484,329.88973 530.757963,370.125949 C526.547267,375.688403 534.32557,380.260379 536.517487,384.947774 C546.477106,397.99946 550.998745,414.636178 562.454192,426.223936 C581.379353,463.843223 565.123125,509.971663 517.57937,511.12349 C502.135835,516.140652 470.345381,502.672047 462.050017,511.217709 C451.490888,540.299578 433.809502,573.923981 401.404227,581.958505 C365.332408,588.613899 340.452204,556.387471 324.773106,528.610535 C321.028827,515.47523 314.058507,513.297594 301.75621,517.891947 C269.963399,524.595628 233.75142,529.915468 204.616942,511.695871 C156.690397,477.039771 190.006124,410.399857 216.0559,371.957331 C224.781167,359.16357 202.057546,347.575812 196.929332,336.209468 C154.76231,283.392658 160.368719,217.432298 240.966726,221.832325" id="Fill-1" blush:i="0.0.0.0.0"/><path d="M224.64161,574.842223 C257.05706,584.338059 211.691888,630.751018 192.906797,632.842223 C168.502637,631.417847 215.934403,578.98811 224.64161,574.842223" id="Fill-3" blush:i="0.0.0.0.1"/><path d="M381,711.073193 C371.874066,765.442207 333.403717,678.983039 363.010817,665.180292 C382.618323,660.946932 378.070601,697.618039 381,711.073193" id="Fill-5" blush:i="0.0.0.0.2"/><path d="M125.797066,230.842223 C115.597244,226.513223 59.8354699,231.193672 69.0164883,210.77756 C79.3754975,187.729141 172.967407,229.391308 125.797066,230.842223" id="Fill-9" blush:i="0.0.0.0.3"/><path d="M490,746.176712 C489.11788,761.798199 472.303427,745.955802 469.430944,739.217465 C463.954499,726.638457 455.364135,699.239783 470.520344,691.842223 C494.414132,697.640816 485.126553,727.753526 490,746.176712" id="Fill-11" blush:i="0.0.0.0.4"/><path d="M238.97545,168.044896 C239.45105,176.660502 232.925019,176.704459 227.347845,174.891523 C213.581211,174.966369 183.922971,129.745127 205.801751,128.842223 C209.406238,130.531604 212.593696,132.844702 216.992412,131.101859 C231.203018,135.911012 236.900849,155.356716 238.97545,168.044896" id="Fill-13" blush:i="0.0.0.0.5"/><path d="M699.617561,254.996578 C702.193019,269.743057 682.249635,281.636468 668.889151,278.266144 C653.290974,271.777134 667.214399,247.654793 680.69099,246.038948 C689.995948,243.662362 705.758317,240.00312 699.617561,254.996578" id="Fill-17" blush:i="0.0.0.0.6"/><path d="M679.488677,474.939452 C682.491027,480.624528 676.918448,482.191607 677.361223,486.270723 C683.919984,489.899746 681.160332,513.357609 672.700241,508.069604 C640.825136,489.846724 669.185266,412.134968 679.488677,474.939452" id="Fill-19" transform="translate(669.500000, 479.842223) rotate(-62.000000) translate(-669.500000, -479.842223)" blush:i="0.0.0.0.7"/><path d="M53.354274,370.677169 C43.5179487,372.656748 38.646648,356.243632 48.0401278,352.804976 C61.0654095,350.050003 91.781081,341.80533 101,351.260143 C93.6801619,365.899737 69.7536168,368.33431 53.354274,370.677169" id="Fill-21" blush:i="0.0.0.0.8"/><path d="M27.3910589,302.569796 C7.3259184,305.198019 -15.6547614,288.15397 14.6409255,279.64701 C35.4254385,273.453072 70.7495982,305.126172 27.3910589,302.569796" id="Fill-25" blush:i="0.0.0.0.9"/><path d="M530.130934,582.121959 C528.24585,571.82073 547.283557,568.282471 550.714082,576.054192 C553.862549,589.01763 564.182329,603.995044 561.585049,616.842223 C546.073061,616.511062 533.921082,595.925043 530.130934,582.121959" id="Fill-27" blush:i="0.0.0.0.10"/><path d="M615.57487,152.489968 C610.12887,185.035301 586.771036,155.257301 589.386703,136.885801 C597.156703,111.192301 617.355203,134.232801 615.57487,152.489968" id="Fill-29" transform="translate(602.434290, 146.221022) rotate(40.000000) translate(-602.434290, -146.221022)" blush:i="0.0.0.0.11"/><path d="M234.263649,754.746185 C231.653194,742.799815 248.988298,708.737121 261.480769,720.145504 C265.100739,738.959742 248.894607,752.852047 240.688482,768.135819 C234.107888,772.072424 235.854046,758.439106 234.263649,754.746185" id="Fill-32" blush:i="0.0.0.0.12"/><path d="M643,698.517121 C640.794529,716.212399 610.540236,684.845637 608.92607,676.380376 C607.162885,671.669479 607.762535,668.865766 612.072145,666.480904 C629.789825,657.892105 640.591864,685.218603 643,698.517121" id="Fill-34" blush:i="0.0.0.0.13"/><path d="M338.147461,42.2132633 C336.443789,27.8862355 349.805031,0.0787187758 362.58316,15.2312968 C366.437793,29.1233948 342.400203,77.4880451 338.147461,42.2132633" id="Fill-36" blush:i="0.0.0.0.14"/><path d="M642.071251,44.9773283 C633.184093,57.9246942 621.20255,36.1874162 617.867529,28.0005735 C611.398407,17.7670202 623.707028,-7.78775744 634.066034,8.05038357 C637.139393,20.4587125 639.217502,32.3792304 642.071251,44.9773283" id="Fill-38" transform="translate(629.071251, 26.000000) rotate(40.000000) translate(-629.071251, -26.000000)" blush:i="0.0.0.0.15"/><path d="M123.033917,554.476414 C122.444392,543.727936 143.755898,526.429877 149.325078,542.160038 C151.274409,549.302815 156.666377,556.899213 149.043902,561.53312 C139.324419,570.514805 122.134862,571.347605 123.033917,554.476414" id="Fill-46" blush:i="0.0.0.0.16"/><path d="M228.559884,28.6405406 C226.814302,72.6056768 221.631764,70.3659413 209.930699,29.1562226 C203.4712,5.70036156 232.906373,3.97276783 228.559884,28.6405406" id="Fill-48" transform="translate(219.000000, 35.842223) rotate(-14.000000) translate(-219.000000, -35.842223)" blush:i="0.0.0.0.17"/><path d="M546.150158,123.231601 C548.759414,135.153099 545.809155,141.988552 530.986135,144.842223 C521.389858,144.811218 526.366141,129.549506 524.004993,123.17436 C523.573449,106.343308 551.272248,101.89287 546.150158,123.231601" id="Fill-50" blush:i="0.0.0.0.18"/><path d="M731.083493,368.364384 C699.265185,367.956531 714.698826,333.7681 754.255674,356.822636 C771.237962,368.355937 737.669061,366.670226 731.137502,368.842223 C731.118716,368.68415 731.101104,368.52487 731.083493,368.364384" id="Fill-52" blush:i="0.0.0.0.19"/><path d="M307.908045,588.236389 C305.783357,593.691164 306.072666,610.679803 297.94423,609.810013 C285.61965,607.459102 285.318768,585.909081 293.915886,579.118347 C300.68804,575.909447 308.96576,578.681681 307.908045,588.236389" id="Fill-58" blush:i="0.0.0.0.20"/><path d="M129.449075,453.842223 C118.142492,448.779146 126.87262,437.454371 133.701419,432.482403 C138.894885,426.95313 159.074732,430.393987 152.804165,440.139139 C145.782132,445.886128 137.552981,449.01816 129.449075,453.842223" id="Fill-60" blush:i="0.0.0.0.21"/><path d="M404.382877,123.626744 C405.573592,146.469386 383.896351,120.975451 390.127839,110.181662 C395.87777,95.7140228 407.843617,114.211391 404.382877,123.626744" id="Fill-64" blush:i="0.0.0.0.22"/><path d="M52,510.712472 C48.4861037,510.301516 45.1105024,511.678634 43,509.924806 C45.3534206,508.621369 48.8408605,508.082768 52,510.712472" id="Fill-66" blush:i="0.0.0.0.23"/><path d="M392.999335,353.5352 C393.111377,372.557261 379.052458,382.937346 363.866118,386.601951 C344.167759,389.734578 335.097037,361.492357 338.818928,345.191797 C349.196805,306.82067 390.688472,320.111824 392.999335,353.5352" id="Fill-68" blush:i="0.0.0.0.24"/></g></g></g></g></svg>